<mxfile host="65bd71144e" modified="2020-12-21T17:12:42.146Z" agent="5.0 (Windows NT 10.0; Win64; x64) AppleWebKit/537.36 (KHTML, like Gecko) Code/1.52.1 Chrome/83.0.4103.122 Electron/9.3.5 Safari/537.36" version="13.10.0" etag="7VtJ11qeFy_3woHVsbEE" type="embed">
    <diagram id="uqHW6xfgcMlr7LsodHUD" name="Page-1">
        <mxGraphModel dx="959" dy="726" grid="1" gridSize="10" guides="1" tooltips="1" connect="1" arrows="1" fold="1" page="1" pageScale="1" pageWidth="850" pageHeight="1100" math="0" shadow="0">
            <root>
                <mxCell id="0"/>
                <mxCell id="1" parent="0"/>
                <mxCell id="22" value="" style="rounded=0;whiteSpace=wrap;html=1;shadow=0;" vertex="1" parent="1">
                    <mxGeometry x="90" y="250" width="630" height="460" as="geometry"/>
                </mxCell>
                <mxCell id="4" value="&lt;p style=&quot;line-height: 120%&quot;&gt;&lt;span&gt;&amp;lt;&amp;lt;service&amp;gt;&amp;gt;&lt;/span&gt;&lt;br&gt;&lt;/p&gt;&lt;p style=&quot;line-height: 0%&quot;&gt;&lt;span&gt;&amp;nbsp; Firebase&lt;/span&gt;&lt;/p&gt;&lt;p style=&quot;line-height: 120%&quot;&gt;&lt;br&gt;&lt;/p&gt;&lt;p style=&quot;line-height: 120%&quot;&gt;&lt;br&gt;&lt;/p&gt;&lt;p style=&quot;line-height: 120%&quot;&gt;&lt;br&gt;&lt;/p&gt;&lt;p style=&quot;line-height: 120%&quot;&gt;&lt;br&gt;&lt;/p&gt;&lt;p style=&quot;line-height: 120%&quot;&gt;&lt;br&gt;&lt;/p&gt;&lt;p style=&quot;line-height: 120%&quot;&gt;&lt;br&gt;&lt;/p&gt;" style="html=1;dashed=0;whitespace=wrap;shape=mxgraph.dfd.externalEntity;shadow=0;flipH=1;container=0;align=left;" vertex="1" parent="1">
                    <mxGeometry x="420" y="470" width="280" height="210" as="geometry"/>
                </mxCell>
                <mxCell id="10" value="&lt;p style=&quot;line-height: 120%&quot;&gt;&lt;span&gt;&amp;lt;&amp;lt;device&amp;gt;&amp;gt;&lt;/span&gt;&lt;br&gt;&lt;/p&gt;&lt;p style=&quot;line-height: 0%&quot;&gt;&lt;span&gt;&amp;nbsp; Smartphone&lt;/span&gt;&lt;/p&gt;&lt;p style=&quot;line-height: 120%&quot;&gt;&lt;br&gt;&lt;/p&gt;&lt;p style=&quot;line-height: 120%&quot;&gt;&lt;br&gt;&lt;/p&gt;&lt;p style=&quot;line-height: 120%&quot;&gt;&lt;br&gt;&lt;/p&gt;" style="html=1;dashed=0;whitespace=wrap;shape=mxgraph.dfd.externalEntity;shadow=0;flipH=1;container=0;align=left;" vertex="1" parent="1">
                    <mxGeometry x="115" y="510" width="190" height="130" as="geometry"/>
                </mxCell>
                <mxCell id="11" value="&lt;p style=&quot;line-height: 120%&quot;&gt;&lt;span&gt;&amp;lt;&amp;lt;device&amp;gt;&amp;gt;&lt;/span&gt;&lt;br&gt;&lt;/p&gt;&lt;p style=&quot;line-height: 0%&quot;&gt;&lt;span&gt;&amp;nbsp; Server&lt;/span&gt;&lt;/p&gt;&lt;p style=&quot;line-height: 120%&quot;&gt;&lt;br&gt;&lt;/p&gt;&lt;p style=&quot;line-height: 120%&quot;&gt;&lt;br&gt;&lt;/p&gt;&lt;p style=&quot;line-height: 120%&quot;&gt;&lt;br&gt;&lt;/p&gt;" style="html=1;dashed=0;whitespace=wrap;shape=mxgraph.dfd.externalEntity;shadow=0;flipH=1;container=0;align=left;" vertex="1" parent="1">
                    <mxGeometry x="465" y="280" width="190" height="130" as="geometry"/>
                </mxCell>
                <mxCell id="12" value="&amp;lt;&amp;lt;component&amp;gt;&amp;gt;&lt;br&gt;Discord Bot" style="html=1;dashed=0;whitespace=wrap;shadow=0;" vertex="1" parent="1">
                    <mxGeometry x="510" y="340" width="100" height="50" as="geometry"/>
                </mxCell>
                <mxCell id="13" value="" style="endArrow=none;html=1;edgeStyle=orthogonalEdgeStyle;" edge="1" parent="1" source="4" target="11">
                    <mxGeometry relative="1" as="geometry">
                        <mxPoint x="280" y="420" as="sourcePoint"/>
                        <mxPoint x="440" y="420" as="targetPoint"/>
                    </mxGeometry>
                </mxCell>
                <mxCell id="14" value="1" style="edgeLabel;resizable=0;html=1;align=left;verticalAlign=bottom;" connectable="0" vertex="1" parent="13">
                    <mxGeometry x="-1" relative="1" as="geometry">
                        <mxPoint x="5" as="offset"/>
                    </mxGeometry>
                </mxCell>
                <mxCell id="15" value="*" style="edgeLabel;resizable=0;html=1;align=right;verticalAlign=bottom;" connectable="0" vertex="1" parent="13">
                    <mxGeometry x="1" relative="1" as="geometry">
                        <mxPoint x="15" y="20" as="offset"/>
                    </mxGeometry>
                </mxCell>
                <mxCell id="16" value="" style="endArrow=none;html=1;edgeStyle=orthogonalEdgeStyle;" edge="1" parent="1" source="4" target="10">
                    <mxGeometry relative="1" as="geometry">
                        <mxPoint x="525" y="480" as="sourcePoint"/>
                        <mxPoint x="525" y="420" as="targetPoint"/>
                    </mxGeometry>
                </mxCell>
                <mxCell id="17" value="1" style="edgeLabel;resizable=0;html=1;align=left;verticalAlign=bottom;" connectable="0" vertex="1" parent="16">
                    <mxGeometry x="-1" relative="1" as="geometry">
                        <mxPoint x="-10" as="offset"/>
                    </mxGeometry>
                </mxCell>
                <mxCell id="18" value="*" style="edgeLabel;resizable=0;html=1;align=right;verticalAlign=bottom;" connectable="0" vertex="1" parent="16">
                    <mxGeometry x="1" relative="1" as="geometry">
                        <mxPoint x="10" as="offset"/>
                    </mxGeometry>
                </mxCell>
                <mxCell id="19" value="&amp;lt;&amp;lt;component&amp;gt;&amp;gt;&lt;br&gt;InquireScape App" style="html=1;dashed=0;whitespace=wrap;shadow=0;" vertex="1" parent="1">
                    <mxGeometry x="160" y="570" width="100" height="50" as="geometry"/>
                </mxCell>
                <mxCell id="20" value="&amp;lt;&amp;lt;component&amp;gt;&amp;gt;&lt;br&gt;Authentication" style="html=1;dashed=0;whitespace=wrap;shadow=0;" vertex="1" parent="1">
                    <mxGeometry x="510" y="520" width="100" height="50" as="geometry"/>
                </mxCell>
                <mxCell id="21" value="&amp;lt;&amp;lt;component&amp;gt;&amp;gt;&lt;br&gt;Cloud Firestore" style="html=1;dashed=0;whitespace=wrap;shadow=0;" vertex="1" parent="1">
                    <mxGeometry x="510" y="590" width="100" height="50" as="geometry"/>
                </mxCell>
            </root>
        </mxGraphModel>
    </diagram>
</mxfile>